<?xml version="1.0" encoding="utf-8"?>
<!-- Generator: Adobe Illustrator 18.1.1, SVG Export Plug-In . SVG Version: 6.00 Build 0)  -->
<svg version="1.1" id="Layer_1" xmlns="http://www.w3.org/2000/svg" xmlns:xlink="http://www.w3.org/1999/xlink" x="0px" y="0px"
	 viewBox="0 0 1280 800" enable-background="new 0 0 1280 800" xml:space="preserve">
<circle fill="#1B8480" cx="636.1" cy="65.3" r="65.3"/>
<path fill="#1B8480" d="M558.9,763.4c0,20.2,16.4,36.6,36.6,36.6c20.2,0,36.6-16.4,36.6-36.6v-307h16.3l-0.1,307
	c0,20.2,16.4,36.6,36.6,36.6s36.6-16.4,36.6-36.6l0.2-529.3h16v195c0,39.2,51.2,39.2,51.1,0V230c0-43.3-25.5-85.8-76.2-85.8
	l-146.3-0.1c-46.2,0-75.2,37.7-75.2,84.7v200.4c0,39,51.5,39,51.5,0v-195H559L558.9,763.4z"/>
</svg>
