<?xml version="1.0" encoding="utf-8"?>
<!-- Generator: Adobe Illustrator 18.1.1, SVG Export Plug-In . SVG Version: 6.00 Build 0)  -->
<svg version="1.1" id="Layer_1" xmlns="http://www.w3.org/2000/svg" xmlns:xlink="http://www.w3.org/1999/xlink" x="0px" y="0px"
	 viewBox="1097 -49 168 168" enable-background="new 1097 -49 168 168" xml:space="preserve">
<path fill="#1B8480" d="M1245.4-9.6c-3.6,5.3-7.9,9.8-13.1,13.5c0.1,1,0.1,2.1,0.1,3.4c0,7-1,14-3.1,21.1c-2,7-5.2,13.8-9.4,20.2
	c-4.2,6.4-9.2,12.1-15,17.1c-5.8,5-12.8,8.9-20.9,11.9c-8.2,3-16.9,4.4-26.2,4.4c-14.6,0-28-3.9-40.2-11.8c2.2,0.2,4.3,0.4,6.3,0.4
	c12.2,0,23-3.7,32.6-11.2c-5.7-0.1-10.7-1.8-15.2-5.2c-4.5-3.4-7.6-7.7-9.3-13c1.7,0.3,3.3,0.5,4.9,0.5c2.3,0,4.6-0.3,6.9-0.9
	c-6.1-1.2-11.1-4.2-15.1-9c-4-4.8-6-10.4-6-16.7v-0.3c3.7,2.1,7.7,3.2,11.9,3.3c-3.6-2.4-6.4-5.5-8.5-9.3c-2.1-3.8-3.1-8-3.1-12.5
	c0-4.7,1.2-9.1,3.5-13.2c6.6,8.1,14.6,14.5,23.9,19.4c9.4,4.8,19.4,7.5,30.1,8.1c-0.5-1.9-0.7-3.9-0.7-6c0-7.2,2.6-13.4,7.7-18.5
	c5.1-5.1,11.3-7.7,18.5-7.7c7.6,0,14,2.8,19.2,8.3c5.9-1.2,11.5-3.3,16.7-6.4c-2,6.3-5.8,11.1-11.5,14.5
	C1235.6-6.1,1240.6-7.4,1245.4-9.6L1245.4-9.6z"/>
</svg>
