<?xml version="1.0" encoding="utf-8"?>
<!-- Generator: Adobe Illustrator 18.1.1, SVG Export Plug-In . SVG Version: 6.00 Build 0)  -->
<svg version="1.1" id="Layer_1" xmlns="http://www.w3.org/2000/svg" xmlns:xlink="http://www.w3.org/1999/xlink" x="0px" y="0px"
	 viewBox="0 0 1280 800" enable-background="new 0 0 1280 800" xml:space="preserve">
<path fill="#494949" d="M694.9,144.4c45.6,0,64.1,37.6,71,58.3l56,184.1c11.2,39.6-39.2,56-51.2,17.4l-50.4-169h-14.7l87.3,300.6
	h-80.5v234.4c0,40-60.1,39.8-60.1,0v-236h-24.5v235.6c0,40.3-60.4,40.3-60.4,0v-234h-80.7l86.6-300.6h-13.6l-50.4,169.6
	c-12,37-62.8,21.8-51.2-17.8L514,202.8c6-21,24.4-58.3,70.4-58.3h110.5V144.4z"/>
<circle fill="#494949" cx="640.1" cy="65.3" r="65.3"/>
</svg>
