<?xml version="1.0" encoding="utf-8"?>
<!-- Generator: Adobe Illustrator 18.1.1, SVG Export Plug-In . SVG Version: 6.00 Build 0)  -->
<svg version="1.1" id="Layer_1" xmlns="http://www.w3.org/2000/svg" xmlns:xlink="http://www.w3.org/1999/xlink" x="0px" y="0px"
	 viewBox="0 0 1280 800" enable-background="new 0 0 1280 800" xml:space="preserve">
<path fill="#1B8480" d="M680.9,199.2c41.6,0,57.8,33.5,63.6,53.2l50.8,166.4c10.4,35.8-35.8,50.8-46.2,16.2L704,282.4h-12.7
	L769.9,554h-72.8v211.5c0,35.8-54.3,35.8-54.3,0V551.7h-23.1v212.6c0,35.8-54.3,35.8-54.3,0V552.8h-72.8l78.6-271.6h-12.7
	l-45.1,152.5c-10.4,33.5-56.6,19.6-46.2-16.2L518,251.2c5.8-18.5,22-53.2,63.6-53.2L680.9,199.2L680.9,199.2z"/>
<circle fill="#1B8480" cx="631.2" cy="128.7" r="58.9"/>
</svg>
