<?xml version="1.0" encoding="utf-8"?>
<!-- Generator: Adobe Illustrator 18.1.1, SVG Export Plug-In . SVG Version: 6.00 Build 0)  -->
<svg version="1.1" id="Layer_1" xmlns:sketch="http://www.bohemiancoding.com/sketch/ns"
	 xmlns="http://www.w3.org/2000/svg" xmlns:xlink="http://www.w3.org/1999/xlink" x="0px" y="0px" viewBox="0 0 100 100"
	 enable-background="new 0 0 100 100" xml:space="preserve">
<title>building6</title>
<desc>Created with Sketch.</desc>
<g sketch:type="MSPage">
	<path sketch:type="MSShapeGroup" fill="#494949" d="M21.1,34.6h8.2v-8.2h-8.2V34.6z M33.4,34.6h8.2v-8.2h-8.2V34.6z M21.1,47.2h8.2
		V39h-8.2V47.2z M33.4,47.2h8.2V39h-8.2V47.2z M21.1,59.8h8.2v-8.2h-8.2V59.8z M33.4,59.8h8.2v-8.2h-8.2V59.8z M21.1,72.3h8.2v-8.2
		h-8.2V72.3z M33.4,72.3h8.2v-8.2h-8.2V72.3z M55.8,59.8H64v-8.2h-8.2V59.8z M68.1,59.8h8.2v-8.2h-8.2V59.8z M55.8,72.3H64v-8.2
		h-8.2V72.3z M68.1,72.3h8.2v-8.2h-8.2V72.3z M85,77.9V42.6H50.3V17.2h-38v60.7H6.1v3.3h85.2v-3.3H85L85,77.9z M15.6,20.5H47v57.4
		H15.6V20.5z M50.3,45.9h31.4v32.1H50.3V45.9z"/>
</g>
</svg>
